# xmcd
#
# Track frame offsets:
#	150
#	1852
#	10504
#	32826
#	34013
#	51400
#	68592
#	70069
#	86788
#	100843
#
# Disc length: 1356 seconds
#
# Revision: 0
# Processed by: cddbd v1.4PL0 Copyright (c) Steve Scherf et al.
# Submitted via: EasyCDDAExtractor 4.5.0.2
#
DISCID=72054a0a
DTITLE=Br5-49 - Live From Robert's
DYEAR=1900
DGENRE=Country
TTITLE0=Boot Plug (Dialog)
TTITLE1=Hillbilly Thang
TTITLE2=18 Wheels and A Crowbar
TTITLE3=Bettie Plug (Dialog)
TTITLE4=Bettie Bettie
TTITLE5=Me 'N' Opie
TTITLE6=Tip Plug (Dialog)
TTITLE7=Knoxville Girl
TTITLE8=Ole Slewfoot
TTITLE9=Firemarshal (Dialog)
EXTD=
EXTT0=
EXTT1=
EXTT2=
EXTT3=
EXTT4=
EXTT5=
EXTT6=
EXTT7=
EXTT8=
EXTT9=
PLAYORDER=
